<svg version="1.1" id="Layer_1" xmlns="http://www.w3.org/2000/svg" xmlns:xlink="http://www.w3.org/1999/xlink" x="0px" y="0px"
	 width="100%" viewBox="0 0 301 302" enable-background="new 0 0 301 302" xml:space="preserve">
<path fill="#A97ED7" opacity="1.000000" stroke="none" 
	d="
M1.000001,295.000000 
	C1.000000,199.979111 1.000000,104.958206 1.269297,9.271569 
	C4.025729,6.070549 6.512865,3.535275 9.000000,1.000000 
	C103.354225,1.000000 197.708450,1.000000 292.826599,1.164520 
	C296.393677,4.219362 299.196838,7.109684 302.000000,10.000003 
	C302.000000,104.354225 302.000000,198.708450 301.999512,293.899841 
	C299.332672,297.491302 296.666321,300.245667 294.000000,303.000000 
	C199.312439,303.000000 104.624878,303.000000 9.261061,302.739502 
	C6.056540,299.985992 3.528271,297.492981 1.000001,295.000000 
M145.997360,197.006119 
	C145.997360,197.006119 146.086182,196.996613 145.665283,197.432236 
	C145.461700,197.781448 145.258118,198.130661 144.943817,198.777725 
	C144.809143,198.962906 144.627396,199.059509 143.880020,199.333817 
	C143.587982,199.586548 143.295944,199.839279 143.003784,200.003799 
	C143.003784,200.003799 143.091995,200.003876 142.680222,200.414780 
	C142.475296,200.744232 142.270370,201.073685 141.862686,201.847092 
	C141.365173,202.251343 140.867661,202.655594 139.840942,203.406464 
	C139.580841,203.735764 139.320724,204.065079 138.861725,204.848862 
	C138.362320,205.269241 137.862930,205.689621 136.598541,206.119919 
	C135.779755,207.142410 134.960953,208.164886 134.027557,209.119370 
	C134.027557,209.119370 134.095459,209.004730 133.684586,209.414383 
	C133.479385,209.742401 133.274185,210.070404 132.937134,210.727234 
	C132.786789,210.928818 132.586716,211.043961 131.839081,211.342606 
	C131.561615,211.595947 131.284149,211.849289 130.995132,212.013412 
	C130.995132,212.013412 131.084351,212.001999 130.677658,212.414047 
	C130.473953,212.741898 130.270248,213.069748 129.864197,213.839600 
	C129.372711,214.247681 128.881226,214.655777 127.874825,215.332855 
	C127.583549,215.584763 127.292274,215.836685 127.001038,216.000717 
	C127.001038,216.000717 127.088913,216.000885 126.678200,216.413391 
	C126.472504,216.742676 126.266800,217.071960 125.860962,217.846542 
	C125.362953,218.249908 124.864952,218.653275 123.839272,219.405197 
	C123.578651,219.734009 123.318031,220.062836 122.861137,220.847229 
	C122.361267,221.266495 121.861397,221.685760 120.596848,222.117142 
	C119.776489,223.139130 118.956139,224.161118 118.048424,225.105240 
	C118.048424,225.105240 118.127380,225.018845 117.714607,225.340042 
	C117.483833,225.600082 117.253067,225.860107 117.030434,226.016113 
	C117.030434,226.016113 117.134377,226.025314 116.723442,226.346390 
	C116.493263,226.605591 116.263084,226.864777 116.193359,227.038971 
	C116.193359,227.038971 116.278923,227.199127 115.616898,227.287445 
	C115.144844,227.951279 114.672783,228.615097 114.044197,229.191956 
	C114.044197,229.191956 114.130859,229.035248 113.723404,229.355621 
	C113.494514,229.613449 113.265617,229.871277 113.212532,230.056122 
	C113.212532,230.056122 113.286400,230.231567 112.562393,230.242783 
	C109.117096,233.923859 105.671799,237.604935 102.077217,241.184769 
	C102.077217,241.184769 102.179619,241.036285 101.743668,241.426926 
	C101.492081,241.946198 101.240494,242.465469 100.852470,243.665543 
	C98.678650,249.603546 101.166054,255.178726 106.951019,255.482956 
	C109.991051,255.642822 113.916702,254.124817 116.144211,252.002121 
	C126.994301,241.662689 137.399338,230.856537 147.981827,220.235458 
	C149.223770,218.988983 150.588684,217.865021 152.120041,216.482529 
	C163.806000,227.163422 175.086365,237.505280 186.402893,247.807388 
	C196.444427,256.948822 208.747101,253.154541 211.958908,240.078720 
	C220.094833,206.956024 228.321793,173.855682 236.519501,140.748184 
	C242.837967,115.230339 249.208771,89.725357 255.469635,64.193405 
	C257.682373,55.169792 253.485718,47.812309 244.983261,46.509430 
	C241.704117,46.006950 238.017441,46.779568 234.754776,47.762390 
	C188.708252,61.633003 142.704025,75.643951 96.686691,89.611511 
	C83.788368,93.526512 70.856728,97.333588 57.984940,101.333580 
	C47.156387,104.698624 43.774525,114.202461 50.488976,123.119675 
	C53.230049,126.760002 56.975613,129.669769 60.392994,132.769928 
	C68.735237,140.337769 77.152664,147.822754 85.761086,155.539444 
	C84.323647,157.184082 83.415108,158.338257 82.390572,159.378159 
	C71.402412,170.531204 60.388012,181.658386 49.398560,192.810150 
	C45.270535,196.999130 44.715237,201.619766 47.845470,205.167892 
	C51.080723,208.835037 56.744564,209.255020 60.793369,205.508865 
	C69.530899,197.424515 78.126160,189.176392 86.547302,180.762711 
	C96.542160,170.776718 106.232536,160.486526 116.179970,150.452209 
	C119.995010,146.603836 122.269661,147.245056 127.728111,152.927414 
	C130.900513,156.229919 130.663544,159.083847 127.362068,162.325180 
	C117.733589,171.778244 108.301956,181.431808 98.793869,191.007507 
	C94.568100,195.263321 90.238235,199.422348 86.153473,203.809525 
	C82.999672,207.196777 82.416840,211.192917 84.743813,215.318893 
	C87.075043,219.452423 90.976883,221.134399 95.326385,220.047028 
	C98.199226,219.328827 101.125137,217.500549 103.266472,215.395386 
	C116.214386,202.666382 129.007797,189.777664 141.701736,176.794571 
	C145.097015,173.321945 148.084900,173.005844 151.463257,176.490295 
	C152.613144,177.676270 153.818420,178.808548 155.315491,180.355942 
	C155.575455,180.567154 155.835403,180.778351 156.010330,180.988770 
	C156.010330,180.988770 156.011642,180.903748 156.294113,181.313507 
	C156.499634,181.576645 156.737671,181.806061 156.997559,182.000870 
	C156.997559,182.000870 157.001770,181.990295 157.006104,182.788956 
	C157.024490,183.587860 157.042892,184.386780 157.021454,185.606079 
	C157.021454,185.606079 156.886932,186.006363 156.546432,186.324554 
	C156.336548,186.556396 156.159637,186.811142 156.006439,187.012177 
	C156.006439,187.012177 156.083115,187.003357 155.671280,187.344589 
	C155.458832,187.629471 155.246384,187.914337 154.872314,188.582947 
	C154.705246,188.824081 154.477951,188.973679 153.740570,189.349380 
	C153.506073,189.629913 153.271576,189.910446 152.869766,190.572937 
	C152.699997,190.808853 152.474625,190.964035 151.741287,191.356796 
	C151.507843,191.640396 151.274414,191.923996 150.874435,192.589981 
	C150.705231,192.830368 150.476257,192.978180 149.737137,193.352966 
	C149.502625,193.634995 149.268112,193.917007 148.812241,194.686523 
	C148.269424,195.135315 147.726608,195.584091 146.737595,196.324020 
	C146.494049,196.580994 146.250504,196.837952 145.997360,197.006119 
z"/>
<path fill="#F8EEFB" opacity="1.000000" stroke="none" 
	d="
M302.000000,9.508955 
	C299.196838,7.109684 296.393677,4.219362 293.295288,1.164520 
	C295.917358,1.000000 298.834717,1.000000 302.000000,1.000000 
	C302.000000,3.670005 302.000000,6.343954 302.000000,9.508955 
z"/>
<path fill="#F7ECFB" opacity="1.000000" stroke="none" 
	d="
M294.494751,303.000000 
	C296.666321,300.245667 299.332672,297.491302 301.999512,294.368469 
	C302.000000,296.911011 302.000000,299.821991 302.000000,303.000000 
	C299.666473,303.000000 297.327972,303.000000 294.494751,303.000000 
z"/>
<path fill="#F7EEFB" opacity="1.000000" stroke="none" 
	d="
M8.505266,1.000000 
	C6.512865,3.535275 4.025729,6.070549 1.269297,8.802912 
	C1.000000,6.417543 1.000000,3.835086 1.000000,1.000000 
	C3.333921,1.000000 5.672227,1.000000 8.505266,1.000000 
z"/>
<path fill="#F8EDFA" opacity="1.000000" stroke="none" 
	d="
M1.000001,295.494751 
	C3.528271,297.492981 6.056540,299.985992 8.792404,302.739502 
	C6.417543,303.000000 3.835087,303.000000 1.000000,303.000000 
	C1.000000,300.666077 1.000000,298.327789 1.000001,295.494751 
z"/>
<path fill="#FEFEFE" opacity="1.000000" stroke="none" 
	d="
M121.361526,222.105026 
	C121.861397,221.685760 122.361267,221.266495 123.230919,220.452698 
	C123.856117,219.724319 124.111534,219.390488 124.366951,219.056656 
	C124.864952,218.653275 125.362953,218.249908 126.211052,217.450989 
	C126.737061,216.703918 126.912987,216.352402 127.088913,216.000885 
	C127.088913,216.000885 127.001038,216.000717 127.294067,215.973923 
	C127.854645,215.652710 128.122192,215.358292 128.389740,215.063873 
	C128.881226,214.655777 129.372711,214.247681 130.216980,213.450287 
	C130.741272,212.707977 130.912811,212.354980 131.084351,212.001999 
	C131.084351,212.001999 130.995132,212.013412 131.290314,211.991180 
	C131.835968,211.670181 132.086426,211.371429 132.336884,211.072662 
	C132.586716,211.043961 132.786789,210.928818 133.252716,210.391418 
	C133.744019,209.705322 133.919739,209.355026 134.095459,209.004730 
	C134.095459,209.004730 134.027557,209.119370 134.375580,209.017334 
	C135.603561,207.980209 136.483551,207.045105 137.363541,206.110001 
	C137.862930,205.689621 138.362320,205.269241 139.232819,204.454987 
	C139.859329,203.727341 140.114731,203.393585 140.370148,203.059845 
	C140.867661,202.655594 141.365173,202.251343 142.214081,201.452606 
	C142.740982,200.706696 142.916504,200.355286 143.092010,200.003876 
	C143.091995,200.003876 143.003784,200.003799 143.297699,199.977539 
	C143.860596,199.656708 144.129578,199.362106 144.398560,199.067505 
	C144.627396,199.059509 144.809143,198.962906 145.252823,198.442474 
	C145.736618,197.737030 145.911392,197.366821 146.086182,196.996613 
	C146.086182,196.996613 145.997360,197.006119 146.269135,196.966736 
	C146.755188,196.629196 146.969482,196.331039 147.183777,196.032883 
	C147.726608,195.584091 148.269424,195.135315 149.166687,194.303986 
	C149.743256,193.625443 149.965393,193.329453 150.187531,193.033447 
	C150.476257,192.978180 150.705231,192.830368 151.208801,192.268173 
	C151.759979,191.643723 151.976807,191.341095 152.193634,191.038467 
	C152.474625,190.964035 152.699997,190.808853 153.199982,190.248932 
	C153.750259,189.627197 153.970322,189.329468 154.190399,189.031738 
	C154.477951,188.973679 154.705246,188.824081 155.192383,188.253662 
	C155.702682,187.617371 155.892899,187.310364 156.083115,187.003357 
	C156.083115,187.003357 156.006439,187.012177 156.246796,186.952728 
	C156.620407,186.597656 156.753677,186.302002 156.886932,186.006363 
	C156.886932,186.006363 157.021454,185.606079 157.284637,185.195435 
	C157.365814,183.853287 157.183792,182.921783 157.001770,181.990295 
	C157.001770,181.990295 156.997559,182.000870 156.919220,181.753723 
	C156.564484,181.305634 156.288055,181.104691 156.011642,180.903748 
	C156.011642,180.903748 156.010330,180.988770 155.943726,180.749329 
	C155.584229,180.328384 155.291306,180.146881 154.998398,179.965363 
	C153.818420,178.808548 152.613144,177.676270 151.463257,176.490295 
	C148.084900,173.005844 145.097015,173.321945 141.701736,176.794571 
	C129.007797,189.777664 116.214386,202.666382 103.266472,215.395386 
	C101.125137,217.500549 98.199226,219.328827 95.326385,220.047028 
	C90.976883,221.134399 87.075043,219.452423 84.743813,215.318893 
	C82.416840,211.192917 82.999672,207.196777 86.153473,203.809525 
	C90.238235,199.422348 94.568100,195.263321 98.793869,191.007507 
	C108.301956,181.431808 117.733589,171.778244 127.362068,162.325180 
	C130.663544,159.083847 130.900513,156.229919 127.728111,152.927414 
	C122.269661,147.245056 119.995010,146.603836 116.179970,150.452209 
	C106.232536,160.486526 96.542160,170.776718 86.547302,180.762711 
	C78.126160,189.176392 69.530899,197.424515 60.793369,205.508865 
	C56.744564,209.255020 51.080723,208.835037 47.845470,205.167892 
	C44.715237,201.619766 45.270535,196.999130 49.398560,192.810150 
	C60.388012,181.658386 71.402412,170.531204 82.390572,159.378159 
	C83.415108,158.338257 84.323647,157.184082 85.761086,155.539444 
	C77.152664,147.822754 68.735237,140.337769 60.392994,132.769928 
	C56.975613,129.669769 53.230049,126.760002 50.488976,123.119675 
	C43.774525,114.202461 47.156387,104.698624 57.984940,101.333580 
	C70.856728,97.333588 83.788368,93.526512 96.686691,89.611511 
	C142.704025,75.643951 188.708252,61.633003 234.754776,47.762390 
	C238.017441,46.779568 241.704117,46.006950 244.983261,46.509430 
	C253.485718,47.812309 257.682373,55.169792 255.469635,64.193405 
	C249.208771,89.725357 242.837967,115.230339 236.519501,140.748184 
	C228.321793,173.855682 220.094833,206.956024 211.958908,240.078720 
	C208.747101,253.154541 196.444427,256.948822 186.402893,247.807388 
	C175.086365,237.505280 163.806000,227.163422 152.120041,216.482529 
	C150.588684,217.865021 149.223770,218.988983 147.981827,220.235458 
	C137.399338,230.856537 126.994301,241.662689 116.144211,252.002121 
	C113.916702,254.124817 109.991051,255.642822 106.951019,255.482956 
	C101.166054,255.178726 98.678650,249.603546 101.154076,243.138550 
	C101.696999,242.086487 101.938316,241.561386 102.179626,241.036285 
	C102.179619,241.036285 102.077217,241.184769 102.464523,241.116180 
	C106.330025,237.442261 109.808212,233.836914 113.286400,230.231567 
	C113.286400,230.231567 113.212532,230.056122 113.419785,230.051544 
	C113.794975,229.709717 113.962914,229.372482 114.130859,229.035248 
	C114.130859,229.035248 114.044197,229.191956 114.413101,229.133453 
	C115.280975,228.449661 115.779945,227.824387 116.278915,227.199127 
	C116.278923,227.199127 116.193359,227.038971 116.401039,227.030869 
	C116.783936,226.690277 116.959160,226.357803 117.134377,226.025314 
	C117.134377,226.025314 117.030434,226.016113 117.302238,225.996460 
	C117.758492,225.657486 117.942932,225.338165 118.127380,225.018845 
	C118.127380,225.018845 118.048424,225.105240 118.382713,225.007477 
	C119.598503,223.974808 120.480011,223.039917 121.361526,222.105026 
M211.465073,110.969681 
	C217.018494,105.823761 222.571899,100.677834 228.447525,95.233345 
	C221.115784,88.276001 214.286972,81.754173 207.382889,75.313026 
	C206.737289,74.710732 205.604263,74.307632 204.717407,74.340889 
	C199.822311,74.524467 194.933380,74.872276 188.876358,75.233269 
	C196.814758,81.596962 203.860855,87.245361 211.104660,93.052238 
	C202.791870,104.414223 189.983444,112.760620 190.519028,129.976242 
	C197.804977,123.377457 204.381287,117.421387 211.465073,110.969681 
z"/>
<path fill="#A284C7" opacity="1.000000" stroke="none" 
	d="
M112.924393,230.237183 
	C109.808212,233.836914 106.330025,237.442261 102.539169,241.166809 
	C105.671799,237.604935 109.117096,233.923859 112.924393,230.237183 
z"/>
<path fill="#A284C7" opacity="1.000000" stroke="none" 
	d="
M120.979187,222.111084 
	C120.480011,223.039917 119.598503,223.974808 118.426392,225.046402 
	C118.956139,224.161118 119.776489,223.139130 120.979187,222.111084 
z"/>
<path fill="#A385C6" opacity="1.000000" stroke="none" 
	d="
M136.981049,206.114960 
	C136.483551,207.045105 135.603561,207.980209 134.432861,209.051331 
	C134.960953,208.164886 135.779755,207.142410 136.981049,206.114960 
z"/>
<path fill="#A284C7" opacity="1.000000" stroke="none" 
	d="
M115.947906,227.243286 
	C115.779945,227.824387 115.280975,228.449661 114.491364,229.176941 
	C114.672783,228.615097 115.144844,227.951279 115.947906,227.243286 
z"/>
<path fill="#A385C6" opacity="1.000000" stroke="none" 
	d="
M157.003937,182.389618 
	C157.183792,182.921783 157.365814,183.853287 157.304565,184.985229 
	C157.042892,184.386780 157.024490,183.587860 157.003937,182.389618 
z"/>
<path fill="#A284C7" opacity="1.000000" stroke="none" 
	d="
M101.961647,241.231598 
	C101.938316,241.561386 101.696999,242.086487 101.222290,242.798157 
	C101.240494,242.465469 101.492081,241.946198 101.961647,241.231598 
z"/>
<path fill="#A284C7" opacity="1.000000" stroke="none" 
	d="
M130.881012,212.208023 
	C130.912811,212.354980 130.741272,212.707977 130.318146,213.229279 
	C130.270248,213.069748 130.473953,212.741898 130.881012,212.208023 
z"/>
<path fill="#A385C6" opacity="1.000000" stroke="none" 
	d="
M155.156952,180.160645 
	C155.291306,180.146881 155.584229,180.328384 155.986252,180.749725 
	C155.835403,180.778351 155.575455,180.567154 155.156952,180.160645 
z"/>
<path fill="#A385C6" opacity="1.000000" stroke="none" 
	d="
M156.152878,181.108627 
	C156.288055,181.104691 156.564484,181.305634 156.924561,181.754150 
	C156.737671,181.806061 156.499634,181.576645 156.152878,181.108627 
z"/>
<path fill="#A284C7" opacity="1.000000" stroke="none" 
	d="
M113.927124,229.195435 
	C113.962914,229.372482 113.794975,229.709717 113.331879,230.088043 
	C113.265617,229.871277 113.494514,229.613449 113.927124,229.195435 
z"/>
<path fill="#A284C7" opacity="1.000000" stroke="none" 
	d="
M116.928909,226.185852 
	C116.959160,226.357803 116.783936,226.690277 116.320808,227.073364 
	C116.263084,226.864777 116.493263,226.605591 116.928909,226.185852 
z"/>
<path fill="#A284C7" opacity="1.000000" stroke="none" 
	d="
M117.920990,225.179443 
	C117.942932,225.338165 117.758492,225.657486 117.298172,226.048492 
	C117.253067,225.860107 117.483833,225.600082 117.920990,225.179443 
z"/>
<path fill="#A284C7" opacity="1.000000" stroke="none" 
	d="
M124.103111,219.230927 
	C124.111534,219.390488 123.856117,219.724319 123.329056,220.224899 
	C123.318031,220.062836 123.578651,219.734009 124.103111,219.230927 
z"/>
<path fill="#A284C7" opacity="1.000000" stroke="none" 
	d="
M126.883553,216.207138 
	C126.912987,216.352402 126.737061,216.703918 126.311127,217.228348 
	C126.266800,217.071960 126.472504,216.742676 126.883553,216.207138 
z"/>
<path fill="#A284C7" opacity="1.000000" stroke="none" 
	d="
M128.132278,215.198364 
	C128.122192,215.358292 127.854645,215.652710 127.294044,216.017853 
	C127.292274,215.836685 127.583549,215.584763 128.132278,215.198364 
z"/>
<path fill="#A385C6" opacity="1.000000" stroke="none" 
	d="
M156.716675,186.165466 
	C156.753677,186.302002 156.620407,186.597656 156.251434,186.991043 
	C156.159637,186.811142 156.336548,186.556396 156.716675,186.165466 
z"/>
<path fill="#A284C7" opacity="1.000000" stroke="none" 
	d="
M132.087982,211.207642 
	C132.086426,211.371429 131.835968,211.670181 131.296097,212.035782 
	C131.284149,211.849289 131.561615,211.595947 132.087982,211.207642 
z"/>
<path fill="#A385C6" opacity="1.000000" stroke="none" 
	d="
M133.890015,209.209564 
	C133.919739,209.355026 133.744019,209.705322 133.318634,210.227020 
	C133.274185,210.070404 133.479385,209.742401 133.890015,209.209564 
z"/>
<path fill="#A385C6" opacity="1.000000" stroke="none" 
	d="
M140.105545,203.233154 
	C140.114731,203.393585 139.859329,203.727341 139.332275,204.227737 
	C139.320724,204.065079 139.580841,203.735764 140.105545,203.233154 
z"/>
<path fill="#A385C6" opacity="1.000000" stroke="none" 
	d="
M142.886108,200.209320 
	C142.916504,200.355286 142.740982,200.706696 142.315460,201.230621 
	C142.270370,201.073685 142.475296,200.744232 142.886108,200.209320 
z"/>
<path fill="#A385C6" opacity="1.000000" stroke="none" 
	d="
M144.139282,199.200653 
	C144.129578,199.362106 143.860596,199.656708 143.297745,200.021637 
	C143.295944,199.839279 143.587982,199.586548 144.139282,199.200653 
z"/>
<path fill="#A385C6" opacity="1.000000" stroke="none" 
	d="
M145.875732,197.214417 
	C145.911392,197.366821 145.736618,197.737030 145.308167,198.293549 
	C145.258118,198.130661 145.461700,197.781448 145.875732,197.214417 
z"/>
<path fill="#A385C6" opacity="1.000000" stroke="none" 
	d="
M146.960693,196.178452 
	C146.969482,196.331039 146.755188,196.629196 146.273926,197.011139 
	C146.250504,196.837952 146.494049,196.580994 146.960693,196.178452 
z"/>
<path fill="#A385C6" opacity="1.000000" stroke="none" 
	d="
M149.962341,193.193207 
	C149.965393,193.329453 149.743256,193.625443 149.277359,194.060242 
	C149.268112,193.917007 149.502625,193.634995 149.962341,193.193207 
z"/>
<path fill="#A385C6" opacity="1.000000" stroke="none" 
	d="
M151.967468,191.197632 
	C151.976807,191.341095 151.759979,191.643723 151.292068,192.076981 
	C151.274414,191.923996 151.507843,191.640396 151.967468,191.197632 
z"/>
<path fill="#A385C6" opacity="1.000000" stroke="none" 
	d="
M153.965485,189.190552 
	C153.970322,189.329468 153.750259,189.627197 153.283630,190.057953 
	C153.271576,189.910446 153.506073,189.629913 153.965485,189.190552 
z"/>
<path fill="#A385C6" opacity="1.000000" stroke="none" 
	d="
M155.877197,187.173981 
	C155.892899,187.310364 155.702682,187.617371 155.273193,188.061798 
	C155.246384,187.914337 155.458832,187.629471 155.877197,187.173981 
z"/>
<path fill="#A983D3" opacity="1.000000" stroke="none" 
	d="
M211.211334,111.217499 
	C204.381287,117.421387 197.804977,123.377457 190.519028,129.976242 
	C189.983444,112.760620 202.791870,104.414223 211.104660,93.052238 
	C203.860855,87.245361 196.814758,81.596962 188.876358,75.233269 
	C194.933380,74.872276 199.822311,74.524467 204.717407,74.340889 
	C205.604263,74.307632 206.737289,74.710732 207.382889,75.313026 
	C214.286972,81.754173 221.115784,88.276001 228.447525,95.233345 
	C222.571899,100.677834 217.018494,105.823761 211.211334,111.217499 
z"/>
</svg>